# xmcd
#
# Track frame offsets: 
#        150
#        7363
#        20133
#        55650
#        69295
#        83903
#        111468
#        128405
#        143403
#        157083
#        173005
#        187210
#        197788
#        222703
#        236233
#        251183
#        266120
#        278523
#        293435
#        317090
#        330948
#
# Disc length: 4620 seconds
#
# Revision: 2
# Processed by: cddbd v1.5.2PL0 Copyright (c) Steve Scherf et al.
# Submitted via: ExactAudioCopy v1.0b3
#
DISCID=3f120a15
DTITLE=Various Artist - That's Eurobeat: Mega-Nippon D.J. Mix 2
DYEAR=1991
DGENRE=Eurodance
TTITLE0=Dr. Tommy - Introduction
TTITLE1=Mister Black [feat. Mitsugu Matsumoto] - Macho man
TTITLE2=Santa Claus and D. Jingle Bells - Eskimo - ISD mix
TTITLE3=Oscar [feat. K. Satoh] - New York City
TTITLE4=Gipsy and Queen [feat. Hanami For Vinyl Mix] - Call me
TTITLE5=Alphatown - DZ mix
TTITLE6=Max Coo and Steve Coo [feat. DJ Papa] - Boogie dancer
TTITLE7=Michael Fortunati [feat. MC Hama Chan] - I'm not a freak
TTITLE8=Gipsy and Queen [feat. Tsuyoshi Sueki] - Love and passion
TTITLE9=Aleph [feat. DJ Kiyoto "Tony" Arazeki] - Hero
TTITLE10=Out of Rem [feat. DJ Poki] - September [remix]
TTITLE11=Alphatown - Mister Black - F.C.F. - MST mix
TTITLE12=Alphatown - Mister Black - F.C.F. - Zodiac mix
TTITLE13=Aleph [feat. MST All Stars] - Doctor
TTITLE14=Lorraine McKane [feat. DJ Miko] - You make me feel brand new
TTITLE15=Coo Coo [feat. DJ Keme Furumura] - Happy days
TTITLE16=Radiorama [feat. Mr. James and DJ Tabo] - Why baby why
TTITLE17=Mister Black [feat. F.U.K.U., Une Peei and Betty] - Brown
TTITLE18=Mark Farina - BUGUS mix
TTITLE19=Mark Farina [feat. DJ Y. Yoshino] - Rock of love
TTITLE20=The Asia Gang [feat. Hisashi "Tommy" Higuchi] - Roppongi suic
TTITLE20=ide
EXTD=
EXTT0=
EXTT1=
EXTT2=
EXTT3=
EXTT4=
EXTT5=
EXTT6=
EXTT7=
EXTT8=
EXTT9=
EXTT10=
EXTT11=
EXTT12=
EXTT13=
EXTT14=
EXTT15=
EXTT16=
EXTT17=
EXTT18=
EXTT19=
EXTT20=
PLAYORDER=
